<mxfile host="app.diagrams.net" modified="2024-02-12T22:25:34.086Z" agent="Mozilla/5.0 (Linux; Android 10; K) AppleWebKit/537.36 (KHTML, like Gecko) Chrome/121.0.0.0 Mobile Safari/537.36" version="23.1.3" etag="e4MEnsR5Vfs0ssjbrgsY" type="github">
  <diagram name="Page-1" id="_HeSZI3EMnJuluTCzqNR">
    <mxGraphModel>
      <root>
        <mxCell id="0" />
        <mxCell id="1" parent="0" />
      </root>
    </mxGraphModel>
  </diagram>
</mxfile>
